<svg id="icon" xmlns="http://www.w3.org/2000/svg" viewBox="0 0 16 16">
  <path
    d="M14.9449 6.54871C15.3128 5.45919 15.1861 4.26567 14.5978 3.27464C13.7131 1.75461 11.9345 0.972595 10.1974 1.3406C9.42464 0.481584 8.3144 -0.00692594 7.15045 7.42132e-05C5.37487 -0.00392587 3.79946 1.1241 3.2532 2.79113C2.11256 3.02164 1.12799 3.72615 0.551837 4.72468C-0.339497 6.24071 -0.1363 8.15175 1.05451 9.45178C0.686626 10.5413 0.813308 11.7348 1.40162 12.7258C2.28637 14.2459 4.06498 15.0279 5.80204 14.6599C6.5743 15.5189 7.68504 16.0074 8.849 15.9999C10.6256 16.0044 12.2015 14.8754 12.7478 13.2069C13.8884 12.9764 14.873 12.2718 15.4491 11.2733C16.3394 9.75728 16.1357 7.84774 14.9454 6.54771L14.9449 6.54871Z"
    fill="currentColor"
  />
</svg>
